<svg xmlns="http://www.w3.org/2000/svg" xmlns:xlink="http://www.w3.org/1999/xlink" width="500" zoomAndPan="magnify" viewBox="0 0 375 374.999991" height="500" preserveAspectRatio="xMidYMid meet" version="1.0"><defs><g/><clipPath id="5280190e93"><path d="M 289.410156 199.886719 L 304.558594 199.886719 L 304.558594 215.039062 L 289.410156 215.039062 Z M 289.410156 199.886719 " clip-rule="nonzero"/></clipPath><clipPath id="6150e7f929"><path d="M 296.984375 199.886719 C 292.800781 199.886719 289.410156 203.277344 289.410156 207.460938 C 289.410156 211.644531 292.800781 215.039062 296.984375 215.039062 C 301.167969 215.039062 304.558594 211.644531 304.558594 207.460938 C 304.558594 203.277344 301.167969 199.886719 296.984375 199.886719 Z M 296.984375 199.886719 " clip-rule="nonzero"/></clipPath><clipPath id="be38a2bb23"><path d="M 0.410156 0.886719 L 15.558594 0.886719 L 15.558594 16.039062 L 0.410156 16.039062 Z M 0.410156 0.886719 " clip-rule="nonzero"/></clipPath><clipPath id="7848a28dd6"><path d="M 7.984375 0.886719 C 3.800781 0.886719 0.410156 4.277344 0.410156 8.460938 C 0.410156 12.644531 3.800781 16.039062 7.984375 16.039062 C 12.167969 16.039062 15.558594 12.644531 15.558594 8.460938 C 15.558594 4.277344 12.167969 0.886719 7.984375 0.886719 Z M 7.984375 0.886719 " clip-rule="nonzero"/></clipPath><clipPath id="dcbb90d847"><rect x="0" width="16" y="0" height="17"/></clipPath></defs><g fill="#1b1b1b" fill-opacity="1"><g transform="translate(82.53558, 205.874986)"><g><path d="M 32.703125 -4.21875 C 30.109375 -2.019531 27.03125 -0.734375 23.46875 -0.359375 C 19.914062 0.015625 16.378906 -0.65625 12.859375 -2.375 C 12.679688 -2.507812 12.4375 -2.578125 12.125 -2.578125 C 11.820312 -2.578125 11.515625 -2.488281 11.203125 -2.3125 C 10.679688 -2 10.421875 -1.515625 10.421875 -0.859375 C 10.421875 -0.203125 10.421875 0.453125 10.421875 1.109375 C 10.421875 1.773438 10.421875 2.4375 10.421875 3.09375 C 10.421875 3.539062 10.460938 4.253906 10.546875 5.234375 C 10.640625 6.222656 10.71875 7.289062 10.78125 8.4375 C 10.84375 9.582031 10.828125 10.601562 10.734375 11.5 C 10.648438 12.40625 10.410156 12.988281 10.015625 13.25 C 9.847656 13.34375 9.648438 13.410156 9.421875 13.453125 C 9.203125 13.492188 8.984375 13.535156 8.765625 13.578125 C 7.628906 13.710938 6.453125 13.859375 5.234375 14.015625 C 4.023438 14.171875 2.957031 14.0625 2.03125 13.6875 C 1.113281 13.3125 0.546875 12.398438 0.328125 10.953125 C 0.0234375 8.359375 -0.0390625 5.773438 0.125 3.203125 C 0.300781 0.628906 0.390625 -1.929688 0.390625 -4.484375 C 0.390625 -9.453125 0.398438 -14.492188 0.421875 -19.609375 C 0.453125 -24.734375 0.421875 -29.820312 0.328125 -34.875 C 0.328125 -35.800781 0.378906 -36.460938 0.484375 -36.859375 C 0.597656 -37.253906 0.722656 -37.519531 0.859375 -37.65625 C 1.253906 -38.050781 1.898438 -38.171875 2.796875 -38.015625 C 3.703125 -37.859375 4.625 -37.632812 5.5625 -37.34375 C 6.507812 -37.0625 7.207031 -36.878906 7.65625 -36.796875 C 9.457031 -36.484375 11.144531 -36.457031 12.71875 -36.71875 C 14.300781 -36.988281 15.894531 -37.320312 17.5 -37.71875 C 19.101562 -38.113281 20.785156 -38.3125 22.546875 -38.3125 C 25.054688 -38.3125 27.320312 -37.789062 29.34375 -36.75 C 31.363281 -35.71875 33.078125 -34.3125 34.484375 -32.53125 C 35.890625 -30.757812 37 -28.773438 37.8125 -26.578125 C 38.625 -24.378906 39.070312 -22.101562 39.15625 -19.75 C 39.25 -17.394531 38.96875 -15.117188 38.3125 -12.921875 C 37.738281 -11.078125 36.976562 -9.425781 36.03125 -7.96875 C 35.09375 -6.519531 33.984375 -5.269531 32.703125 -4.21875 Z M 19.515625 -7.984375 C 19.609375 -7.984375 19.675781 -7.984375 19.71875 -7.984375 C 19.757812 -7.984375 19.800781 -7.984375 19.84375 -7.984375 C 21.644531 -8.066406 23.25 -8.613281 24.65625 -9.625 C 26.0625 -10.632812 27.179688 -11.972656 28.015625 -13.640625 C 28.859375 -15.316406 29.253906 -17.164062 29.203125 -19.1875 C 29.203125 -21.300781 28.773438 -23.191406 27.921875 -24.859375 C 27.066406 -26.523438 25.925781 -27.851562 24.5 -28.84375 C 23.070312 -29.832031 21.457031 -30.328125 19.65625 -30.328125 L 19.390625 -30.328125 C 17.628906 -30.285156 16.046875 -29.75 14.640625 -28.71875 C 13.234375 -27.6875 12.132812 -26.300781 11.34375 -24.5625 C 10.550781 -22.820312 10.175781 -20.875 10.21875 -18.71875 C 10.257812 -16.695312 10.6875 -14.875 11.5 -13.25 C 12.3125 -11.625 13.421875 -10.335938 14.828125 -9.390625 C 16.242188 -8.453125 17.804688 -7.984375 19.515625 -7.984375 Z M 19.515625 -7.984375 "/></g></g></g><g fill="#1b1b1b" fill-opacity="1"><g transform="translate(121.829393, 205.874986)"><g><path d="M 36.984375 -16.75 C 36.460938 -16.3125 35.679688 -16.015625 34.640625 -15.859375 C 33.609375 -15.703125 32.507812 -15.625 31.34375 -15.625 C 30.1875 -15.625 29.101562 -15.644531 28.09375 -15.6875 C 27.082031 -15.738281 26.3125 -15.765625 25.78125 -15.765625 C 23.5 -15.710938 21.234375 -15.675781 18.984375 -15.65625 C 16.742188 -15.632812 14.484375 -15.625 12.203125 -15.625 C 11.492188 -15.625 11.039062 -15.40625 10.84375 -14.96875 C 10.644531 -14.53125 10.625 -14.035156 10.78125 -13.484375 C 10.9375 -12.929688 11.144531 -12.457031 11.40625 -12.0625 C 12.332031 -10.875 13.488281 -9.914062 14.875 -9.1875 C 16.257812 -8.46875 17.695312 -8.019531 19.1875 -7.84375 C 20.851562 -7.664062 22.25 -7.894531 23.375 -8.53125 C 24.5 -9.175781 25.765625 -9.847656 27.171875 -10.546875 C 27.828125 -10.898438 28.273438 -11.117188 28.515625 -11.203125 C 28.753906 -11.296875 29.160156 -11.097656 29.734375 -10.609375 C 30.347656 -10.128906 30.929688 -9.472656 31.484375 -8.640625 C 32.035156 -7.804688 32.570312 -7.082031 33.09375 -6.46875 C 33.664062 -5.71875 33.644531 -5.007812 33.03125 -4.34375 C 32.414062 -3.6875 31.46875 -3.082031 30.1875 -2.53125 C 28.914062 -1.988281 27.53125 -1.519531 26.03125 -1.125 C 24.539062 -0.726562 23.191406 -0.421875 21.984375 -0.203125 C 20.773438 0.015625 19.953125 0.125 19.515625 0.125 C 16.566406 0.125 13.851562 -0.453125 11.375 -1.609375 C 8.894531 -2.773438 6.773438 -4.359375 5.015625 -6.359375 C 3.253906 -8.359375 1.929688 -10.609375 1.046875 -13.109375 C 0.171875 -15.617188 -0.164062 -18.25 0.03125 -21 C 0.226562 -23.75 1.078125 -26.421875 2.578125 -29.015625 C 3.710938 -31.035156 5.234375 -32.75 7.140625 -34.15625 C 9.054688 -35.5625 11.171875 -36.601562 13.484375 -37.28125 C 15.796875 -37.96875 18.160156 -38.273438 20.578125 -38.203125 C 22.992188 -38.140625 25.289062 -37.65625 27.46875 -36.75 C 29.644531 -35.851562 31.546875 -34.503906 33.171875 -32.703125 C 33.910156 -31.867188 34.617188 -30.820312 35.296875 -29.5625 C 35.984375 -28.3125 36.566406 -26.960938 37.046875 -25.515625 C 37.535156 -24.066406 37.832031 -22.648438 37.9375 -21.265625 C 38.050781 -19.878906 37.910156 -18.613281 37.515625 -17.46875 C 37.429688 -17.207031 37.253906 -16.96875 36.984375 -16.75 Z M 27.03125 -23.609375 C 27.164062 -23.910156 27.210938 -24.238281 27.171875 -24.59375 C 27.117188 -25.125 26.875 -25.628906 26.4375 -26.109375 C 25.25 -27.773438 23.707031 -29.003906 21.8125 -29.796875 C 19.925781 -30.585938 17.992188 -30.546875 16.015625 -29.671875 C 15.140625 -29.273438 14.316406 -28.769531 13.546875 -28.15625 C 12.773438 -27.539062 12.0625 -26.878906 11.40625 -26.171875 C 11.226562 -25.992188 11.050781 -25.796875 10.875 -25.578125 C 10.695312 -25.359375 10.566406 -25.117188 10.484375 -24.859375 C 10.304688 -24.328125 10.394531 -23.84375 10.75 -23.40625 C 11.101562 -22.96875 11.539062 -22.75 12.0625 -22.75 L 25.515625 -22.75 C 26.265625 -22.75 26.769531 -23.035156 27.03125 -23.609375 Z M 27.03125 -23.609375 "/></g></g></g><g fill="#1b1b1b" fill-opacity="1"><g transform="translate(159.936465, 205.874986)"><g><path d="M 20.5 -29.203125 C 20.28125 -29.078125 20.023438 -28.976562 19.734375 -28.90625 C 19.453125 -28.84375 19.179688 -28.769531 18.921875 -28.6875 C 18.441406 -28.632812 17.9375 -28.597656 17.40625 -28.578125 C 16.875 -28.554688 16.367188 -28.484375 15.890625 -28.359375 C 14.835938 -28.046875 13.9375 -27.484375 13.1875 -26.671875 C 12.4375 -25.859375 11.863281 -24.945312 11.46875 -23.9375 C 10.726562 -21.914062 10.257812 -19.71875 10.0625 -17.34375 C 9.863281 -14.96875 9.796875 -12.570312 9.859375 -10.15625 C 9.921875 -7.738281 9.929688 -5.453125 9.890625 -3.296875 L 9.890625 -2.3125 C 9.890625 -1.476562 9.570312 -0.894531 8.9375 -0.5625 C 8.300781 -0.226562 7.53125 -0.0507812 6.625 -0.03125 C 5.726562 -0.0078125 4.847656 -0.0390625 3.984375 -0.125 C 3.128906 -0.21875 2.460938 -0.285156 1.984375 -0.328125 C 1.535156 -0.328125 1.203125 -0.414062 0.984375 -0.59375 C 0.585938 -0.851562 0.332031 -1.359375 0.21875 -2.109375 C 0.113281 -2.859375 0.0625 -3.691406 0.0625 -4.609375 C 0.0625 -5.535156 0.09375 -6.414062 0.15625 -7.25 C 0.226562 -8.082031 0.265625 -8.695312 0.265625 -9.09375 C 0.347656 -10.632812 0.429688 -12.171875 0.515625 -13.703125 C 0.609375 -15.242188 0.65625 -16.785156 0.65625 -18.328125 C 0.65625 -21.316406 0.65625 -24.316406 0.65625 -27.328125 C 0.65625 -30.335938 0.65625 -33.359375 0.65625 -36.390625 C 0.65625 -37.140625 0.832031 -37.613281 1.1875 -37.8125 C 1.539062 -38.007812 1.976562 -38.085938 2.5 -38.046875 C 3.03125 -38.003906 3.5625 -38.003906 4.09375 -38.046875 C 5.007812 -38.179688 5.910156 -38.25 6.796875 -38.25 C 8.597656 -38.25 9.984375 -37.675781 10.953125 -36.53125 C 11.296875 -36.132812 11.734375 -35.9375 12.265625 -35.9375 C 12.441406 -35.9375 12.59375 -35.957031 12.71875 -36 C 13.289062 -36.039062 13.972656 -36.238281 14.765625 -36.59375 C 15.554688 -36.945312 16.378906 -37.285156 17.234375 -37.609375 C 18.097656 -37.941406 18.898438 -38.160156 19.640625 -38.265625 C 20.390625 -38.378906 21.003906 -38.25 21.484375 -37.875 C 21.972656 -37.507812 22.21875 -36.753906 22.21875 -35.609375 C 22.21875 -35.035156 22.207031 -34.453125 22.1875 -33.859375 C 22.164062 -33.265625 22.132812 -32.679688 22.09375 -32.109375 C 22.039062 -31.804688 21.992188 -31.476562 21.953125 -31.125 C 21.910156 -30.769531 21.78125 -30.460938 21.5625 -30.203125 C 21.300781 -29.710938 20.945312 -29.378906 20.5 -29.203125 Z M 20.5 -29.203125 "/></g></g></g><g fill="#1b1b1b" fill-opacity="1"><g transform="translate(182.286329, 205.874986)"><g><path d="M 32.25 -1.65625 C 31.894531 -1.207031 31.34375 -0.960938 30.59375 -0.921875 C 29.894531 -0.921875 29.210938 -1.0625 28.546875 -1.34375 C 27.890625 -1.632812 27.242188 -1.921875 26.609375 -2.203125 C 25.972656 -2.492188 25.28125 -2.640625 24.53125 -2.640625 C 24.039062 -2.640625 23.554688 -2.601562 23.078125 -2.53125 C 22.597656 -2.46875 22.160156 -2.394531 21.765625 -2.3125 L 21.4375 -2.234375 C 20.15625 -2.015625 18.910156 -1.726562 17.703125 -1.375 C 16.492188 -1.03125 15.363281 -0.679688 14.3125 -0.328125 C 13.820312 -0.191406 13.320312 -0.0820312 12.8125 0 C 12.3125 0.0820312 11.800781 0.125 11.28125 0.125 C 8.070312 0.125 5.367188 -1.144531 3.171875 -3.6875 C 0.660156 -6.550781 -0.328125 -10.070312 0.203125 -14.25 C 0.421875 -15.914062 1 -17.40625 1.9375 -18.71875 C 2.882812 -20.039062 4.082031 -21.054688 5.53125 -21.765625 C 6.28125 -22.109375 7.070312 -22.359375 7.90625 -22.515625 C 8.75 -22.671875 9.609375 -22.816406 10.484375 -22.953125 C 10.703125 -22.953125 10.898438 -22.960938 11.078125 -22.984375 C 11.253906 -23.003906 11.429688 -23.035156 11.609375 -23.078125 L 20.25 -24.265625 C 21.382812 -24.441406 22.09375 -24.78125 22.375 -25.28125 C 22.664062 -25.789062 22.832031 -26.195312 22.875 -26.5 C 22.96875 -27.25 22.738281 -27.929688 22.1875 -28.546875 C 21.632812 -29.160156 20.988281 -29.578125 20.25 -29.796875 C 18.882812 -30.328125 17.472656 -30.59375 16.015625 -30.59375 L 15.828125 -30.59375 C 14.460938 -30.550781 13.164062 -30.351562 11.9375 -30 C 10.707031 -29.644531 9.519531 -29.226562 8.375 -28.75 C 8.019531 -28.570312 7.601562 -28.484375 7.125 -28.484375 C 6.15625 -28.484375 5.195312 -28.800781 4.25 -29.4375 C 3.300781 -30.070312 2.628906 -30.832031 2.234375 -31.71875 C 2.066406 -32.070312 1.992188 -32.367188 2.015625 -32.609375 C 2.035156 -32.847656 2.066406 -33.035156 2.109375 -33.171875 C 2.367188 -33.742188 2.882812 -34.257812 3.65625 -34.71875 C 4.425781 -35.175781 5.238281 -35.566406 6.09375 -35.890625 C 6.957031 -36.222656 7.675781 -36.476562 8.25 -36.65625 C 11.40625 -37.664062 14.585938 -38.171875 17.796875 -38.171875 C 18.109375 -38.171875 18.414062 -38.171875 18.71875 -38.171875 C 19.03125 -38.171875 19.34375 -38.148438 19.65625 -38.109375 C 21.1875 -38.023438 22.882812 -37.726562 24.75 -37.21875 C 26.625 -36.71875 28.222656 -35.765625 29.546875 -34.359375 C 31.078125 -32.679688 32 -31.007812 32.3125 -29.34375 C 32.664062 -27.445312 32.785156 -25.476562 32.671875 -23.4375 C 32.554688 -21.394531 32.523438 -19.40625 32.578125 -17.46875 C 32.578125 -15.488281 32.578125 -13.5 32.578125 -11.5 C 32.578125 -9.5 32.597656 -7.535156 32.640625 -5.609375 C 32.640625 -4.941406 32.671875 -4.234375 32.734375 -3.484375 C 32.804688 -2.742188 32.644531 -2.132812 32.25 -1.65625 Z M 22.6875 -12.984375 C 23.03125 -13.691406 23.132812 -14.285156 23 -14.765625 C 22.875 -15.253906 22.742188 -15.585938 22.609375 -15.765625 C 22.441406 -16.023438 22.171875 -16.273438 21.796875 -16.515625 C 21.421875 -16.753906 20.90625 -16.898438 20.25 -16.953125 L 19.71875 -17.015625 C 19.320312 -17.054688 18.914062 -17.078125 18.5 -17.078125 C 18.082031 -17.078125 17.628906 -17.078125 17.140625 -17.078125 C 16.390625 -17.078125 15.488281 -17 14.4375 -16.84375 C 13.382812 -16.6875 12.375 -16.28125 11.40625 -15.625 C 10.75 -15.101562 10.332031 -14.554688 10.15625 -13.984375 C 9.976562 -13.492188 9.957031 -12.875 10.09375 -12.125 C 10.394531 -10.769531 10.984375 -9.71875 11.859375 -8.96875 C 12.742188 -8.21875 13.800781 -7.84375 15.03125 -7.84375 C 16.570312 -7.84375 18.085938 -8.347656 19.578125 -9.359375 C 21.078125 -10.367188 22.113281 -11.578125 22.6875 -12.984375 Z M 22.6875 -12.984375 "/></g></g></g><g fill="#1b1b1b" fill-opacity="1"><g transform="translate(215.184955, 205.874986)"><g><path d="M 34.875 -23.875 C 35.144531 -21.675781 35.265625 -19.453125 35.234375 -17.203125 C 35.210938 -14.960938 35.203125 -12.898438 35.203125 -11.015625 C 35.203125 -10.578125 35.242188 -9.796875 35.328125 -8.671875 C 35.421875 -7.546875 35.46875 -6.367188 35.46875 -5.140625 C 35.46875 -3.910156 35.367188 -2.84375 35.171875 -1.9375 C 34.972656 -1.039062 34.613281 -0.550781 34.09375 -0.46875 C 33.382812 -0.375 32.46875 -0.238281 31.34375 -0.0625 C 30.226562 0.113281 29.15625 0.15625 28.125 0.0625 C 27.09375 -0.0195312 26.3125 -0.394531 25.78125 -1.0625 C 25.164062 -1.84375 24.921875 -2.835938 25.046875 -4.046875 C 25.179688 -5.265625 25.226562 -6.3125 25.1875 -7.1875 C 25.1875 -9.644531 25.175781 -12.082031 25.15625 -14.5 C 25.132812 -16.925781 25.144531 -19.347656 25.1875 -21.765625 C 25.1875 -24.046875 24.632812 -25.867188 23.53125 -27.234375 C 22.4375 -28.597656 20.859375 -29.410156 18.796875 -29.671875 C 18.660156 -29.710938 18.523438 -29.734375 18.390625 -29.734375 C 18.265625 -29.734375 18.132812 -29.734375 18 -29.734375 C 16.726562 -29.734375 15.53125 -29.390625 14.40625 -28.703125 C 13.28125 -28.023438 12.351562 -27.125 11.625 -26 C 10.90625 -24.882812 10.484375 -23.644531 10.359375 -22.28125 C 10.222656 -20.65625 10.144531 -19.039062 10.125 -17.4375 C 10.101562 -15.832031 10.113281 -14.238281 10.15625 -12.65625 C 10.15625 -10.894531 10.144531 -9.113281 10.125 -7.3125 C 10.101562 -5.507812 10.09375 -3.707031 10.09375 -1.90625 C 10.09375 -1.25 9.75 -0.785156 9.0625 -0.515625 C 8.382812 -0.253906 7.550781 -0.125 6.5625 -0.125 C 5.570312 -0.125 4.625 -0.164062 3.71875 -0.25 C 2.820312 -0.34375 2.132812 -0.390625 1.65625 -0.390625 C 0.988281 -0.390625 0.535156 -0.707031 0.296875 -1.34375 C 0.0546875 -1.988281 -0.0390625 -2.75 0 -3.625 C 0.0390625 -4.507812 0.113281 -5.359375 0.21875 -6.171875 C 0.332031 -6.984375 0.390625 -7.609375 0.390625 -8.046875 C 0.441406 -9.316406 0.476562 -10.585938 0.5 -11.859375 C 0.519531 -13.140625 0.53125 -14.414062 0.53125 -15.6875 C 0.53125 -21.1875 0.472656 -26.679688 0.359375 -32.171875 C 0.253906 -37.671875 0.203125 -43.144531 0.203125 -48.59375 C 0.203125 -49.300781 0.285156 -49.953125 0.453125 -50.546875 C 0.628906 -51.140625 1.113281 -51.519531 1.90625 -51.6875 C 2.875 -51.914062 3.882812 -51.972656 4.9375 -51.859375 C 6 -51.742188 7.015625 -51.664062 7.984375 -51.625 C 9.171875 -51.582031 9.960938 -51.164062 10.359375 -50.375 C 10.753906 -49.582031 10.914062 -48.601562 10.84375 -47.4375 C 10.78125 -46.269531 10.640625 -45.125 10.421875 -44 C 10.203125 -42.882812 10.09375 -41.976562 10.09375 -41.28125 L 10.09375 -37.921875 C 10.09375 -37.429688 10.289062 -37.007812 10.6875 -36.65625 C 10.945312 -36.394531 11.316406 -36.265625 11.796875 -36.265625 C 11.847656 -36.265625 11.882812 -36.265625 11.90625 -36.265625 C 11.925781 -36.265625 11.957031 -36.265625 12 -36.265625 C 12.707031 -36.347656 13.378906 -36.445312 14.015625 -36.5625 C 14.648438 -36.675781 15.253906 -36.773438 15.828125 -36.859375 C 16.972656 -37.078125 18.070312 -37.25 19.125 -37.375 C 20.175781 -37.507812 21.1875 -37.578125 22.15625 -37.578125 C 25.144531 -37.578125 27.503906 -36.941406 29.234375 -35.671875 C 30.972656 -34.398438 32.269531 -32.71875 33.125 -30.625 C 33.988281 -28.539062 34.570312 -26.289062 34.875 -23.875 Z M 34.875 -23.875 "/></g></g></g><g fill="#1b1b1b" fill-opacity="1"><g transform="translate(250.786698, 205.874986)"><g><path d="M 25.84375 -0.46875 C 23.738281 -0.332031 21.628906 -0.21875 19.515625 -0.125 C 17.410156 -0.0390625 15.300781 0 13.1875 0 C 9.582031 0 6.613281 -1.25 4.28125 -3.75 C 1.957031 -6.257812 0.640625 -9.582031 0.328125 -13.71875 C 0.0664062 -17.445312 -0.0195312 -21.203125 0.0625 -24.984375 C 0.15625 -28.765625 0.222656 -32.523438 0.265625 -36.265625 C 0.265625 -36.835938 0.570312 -37.242188 1.1875 -37.484375 C 1.800781 -37.722656 2.554688 -37.875 3.453125 -37.9375 C 4.359375 -38.007812 5.21875 -38.007812 6.03125 -37.9375 C 6.84375 -37.875 7.445312 -37.84375 7.84375 -37.84375 C 8.726562 -37.84375 9.351562 -37.535156 9.71875 -36.921875 C 10.09375 -36.304688 10.3125 -35.546875 10.375 -34.640625 C 10.445312 -33.742188 10.445312 -32.84375 10.375 -31.9375 C 10.3125 -31.039062 10.28125 -30.328125 10.28125 -29.796875 C 10.238281 -27.253906 10.160156 -24.71875 10.046875 -22.1875 C 9.941406 -19.65625 10.046875 -17.140625 10.359375 -14.640625 C 10.578125 -12.835938 11.242188 -11.332031 12.359375 -10.125 C 13.484375 -8.914062 14.988281 -8.242188 16.875 -8.109375 C 16.96875 -8.109375 17.054688 -8.109375 17.140625 -8.109375 C 17.234375 -8.109375 17.320312 -8.109375 17.40625 -8.109375 C 19.425781 -8.109375 21.160156 -8.832031 22.609375 -10.28125 C 24.066406 -11.738281 24.816406 -13.519531 24.859375 -15.625 C 24.941406 -18.613281 25.003906 -21.632812 25.046875 -24.6875 C 25.097656 -27.75 25.078125 -30.925781 24.984375 -34.21875 C 24.941406 -35.757812 25.140625 -36.75 25.578125 -37.1875 C 26.023438 -37.625 26.738281 -37.929688 27.71875 -38.109375 C 28.707031 -38.285156 29.738281 -38.316406 30.8125 -38.203125 C 31.894531 -38.097656 32.820312 -37.828125 33.59375 -37.390625 C 34.363281 -36.953125 34.75 -36.335938 34.75 -35.546875 C 34.75 -32.597656 34.703125 -29.648438 34.609375 -26.703125 C 34.523438 -23.753906 34.441406 -20.8125 34.359375 -17.875 C 34.304688 -15.800781 34.3125 -13.753906 34.375 -11.734375 C 34.445312 -9.710938 34.640625 -7.671875 34.953125 -5.609375 C 35.210938 -4.023438 35.078125 -2.867188 34.546875 -2.140625 C 34.023438 -1.421875 33.28125 -0.960938 32.3125 -0.765625 C 31.34375 -0.566406 30.273438 -0.488281 29.109375 -0.53125 C 27.941406 -0.570312 26.851562 -0.550781 25.84375 -0.46875 Z M 25.84375 -0.46875 "/></g></g></g><g clip-path="url(#5280190e93)"><g clip-path="url(#6150e7f929)"><g transform="matrix(1, 0, 0, 1, 289, 199)"><g clip-path="url(#dcbb90d847)"><g clip-path="url(#be38a2bb23)"><g clip-path="url(#7848a28dd6)"><path fill="#1b1b1b" d="M 0.410156 0.886719 L 15.558594 0.886719 L 15.558594 16.039062 L 0.410156 16.039062 Z M 0.410156 0.886719 " fill-opacity="1" fill-rule="nonzero"/></g></g></g></g></g></g></svg>